<svg xmlns="http://www.w3.org/2000/svg" xmlns:xlink="http://www.w3.org/1999/xlink" viewBox="0 0 863.44 575.63"><defs><style>.cls-1{fill:#b8ddff;}.cls-2{fill:#fff;}.cls-3{fill:none;stroke:#fff;stroke-miterlimit:10;stroke-width:0.25px;opacity:0.39;}</style></defs><title>ui ziebag</title><g id="BACKGROUND"><rect class="cls-1" width="863.44" height="575.63" transform="translate(863.44 575.63) rotate(180)"/></g><g id="OBJECTS"><path d="M606.66,93.12h-142a24.15,24.15,0,0,0-24.12,24.12V458.38a24.15,24.15,0,0,0,22.68,24.07h80v0h63.44a24.15,24.15,0,0,0,24.12-24.12V117.25A24.15,24.15,0,0,0,606.66,93.12Z"/><path class="cls-2" d="M606.66,98.48h-23.1l-4.2,7.44a12.46,12.46,0,0,1-10.84,6.33H502.77a12.46,12.46,0,0,1-10.84-6.33l-4.2-7.44h-23.1a18.76,18.76,0,0,0-18.76,18.76V458.38a18.76,18.76,0,0,0,18.76,18.76h142a18.76,18.76,0,0,0,18.76-18.76V117.24A18.76,18.76,0,0,0,606.66,98.48Z"/><path d="M813.32,93.12h-142a24.15,24.15,0,0,0-24.12,24.12V458.38a24.15,24.15,0,0,0,22.68,24.07h80v0h63.44a24.15,24.15,0,0,0,24.12-24.12V117.25A24.15,24.15,0,0,0,813.32,93.12Z"/><path class="cls-2" d="M813.32,98.48h-23.1l-4.2,7.44a12.46,12.46,0,0,1-10.84,6.33H709.43a12.46,12.46,0,0,1-10.84-6.33l-4.2-7.44h-23.1a18.76,18.76,0,0,0-18.76,18.76V458.38a18.76,18.76,0,0,0,18.76,18.76h142a18.76,18.76,0,0,0,18.76-18.76V117.24A18.76,18.76,0,0,0,813.32,98.48Z"/><line class="cls-3" x1="312.54" y1="314.06" x2="368.21" y2="314.06"/><line class="cls-3" x1="312.54" y1="340.06" x2="368.21" y2="340.06"/><path d="M405.37,93.12h-142a24.15,24.15,0,0,0-24.12,24.12V458.38a24.15,24.15,0,0,0,22.68,24.07h80v0h63.44a24.15,24.15,0,0,0,24.12-24.12V117.25A24.15,24.15,0,0,0,405.37,93.12Z"/><path class="cls-2" d="M405.37,98.48h-23.1l-4.2,7.44a12.46,12.46,0,0,1-10.84,6.33H301.48a12.46,12.46,0,0,1-10.84-6.33l-4.2-7.44h-23.1a18.76,18.76,0,0,0-18.76,18.76V458.38a18.76,18.76,0,0,0,18.76,18.76h142a18.76,18.76,0,0,0,18.76-18.76V117.24A18.76,18.76,0,0,0,405.37,98.48Z"/><image width="1080" height="2460" transform="translate(250.9 104.18) scale(0.15)" xlink:href="../../../../XI RPL PAUZAN/LOMBA 2024/fix ui-01.png"/><path d="M199.19,93.12h-142A24.15,24.15,0,0,0,33,117.25V458.38a24.15,24.15,0,0,0,22.68,24.07h80v0h63.44a24.15,24.15,0,0,0,24.12-24.12V117.25A24.15,24.15,0,0,0,199.19,93.12Z"/><path class="cls-2" d="M199.19,98.48h-23.1l-4.2,7.44A12.46,12.46,0,0,1,161,112.25H95.3a12.46,12.46,0,0,1-10.84-6.33l-4.2-7.44H57.15a18.76,18.76,0,0,0-18.76,18.76V458.38a18.76,18.76,0,0,0,18.76,18.76h142A18.76,18.76,0,0,0,218,458.38V117.24A18.76,18.76,0,0,0,199.19,98.48Z"/><image width="1080" height="2460" transform="translate(43.39 95.64) scale(0.16)" xlink:href="../../../../XI RPL PAUZAN/LOMBA 2024/fix ui-02.png"/><image width="1081" height="2461" transform="translate(456.55 111.86) scale(0.14)" xlink:href="../../../../XI RPL PAUZAN/LOMBA 2024/fix ui-05.jpg"/><image width="1080" height="2461" transform="translate(661.3 110.79) scale(0.15)" xlink:href="../../../../XI RPL PAUZAN/LOMBA 2024/fix ui-07.jpg"/></g></svg>